<svg width="1920" height="400" viewBox="0 0 1920 400" fill="none" xmlns="http://www.w3.org/2000/svg">
<rect width="1920" height="400" fill="#238BE7"/>
<path d="M911.5 151.938V160.594H915.875V161.906H911.5V172.281H910.031V151.938H911.5ZM891.031 160.594C891.016 156.719 894 154.016 898.031 154.031C902.047 154.016 904.984 156.719 905 160.594C904.984 164.516 902.047 167.219 898.031 167.219C894 167.219 891.016 164.516 891.031 160.594ZM892.5 160.594C892.484 163.609 894.875 165.875 898.031 165.875C901.188 165.875 903.562 163.609 903.594 160.594C903.562 157.625 901.188 155.344 898.031 155.312C894.875 155.344 892.484 157.625 892.5 160.594ZM894.781 178.625V170.219H896.219V177.344H912.938V178.625H894.781ZM925.781 158.062C925.766 160.594 927.516 164.328 930.438 166.234C933.359 164.391 935.047 160.797 935.062 158.062V154.344H936.562V158.062C936.531 161.422 938.859 165.016 942.375 166.469L941.469 167.656C938.703 166.391 936.656 163.938 935.797 161.125C934.984 163.844 933.141 166.547 930.406 167.906C927.656 166.516 925.812 163.672 925 160.969C924.078 163.672 922.016 166.328 919.344 167.656L918.469 166.469C921.859 164.875 924.266 161 924.281 158.062V154.344H925.781V158.062ZM917.969 175.438V174.156H943V175.438H917.969ZM968.844 151.969V179.344H967.406V151.969H968.844ZM945.875 172.156C952.094 168.453 955.469 162.797 955.844 156.906H946.844V155.594H957.312C957.312 158.328 956.766 161.062 955.625 163.625H961.688V152.781H963.156V177.812H961.688V164.906H955C953.281 168.125 950.578 171.016 946.812 173.281L945.875 172.156ZM989.125 161.312V162.594H983.219V167.094C986.016 166.953 988.844 166.75 991.438 166.438L991.531 167.594C985.609 168.453 978.875 168.641 973.656 168.625L973.406 167.312C975.922 167.312 978.781 167.266 981.719 167.156V162.594H976V153.844H988.938V155.125H977.5V161.312H989.125ZM978.344 178.625V171.031H979.812V177.344H996.594V178.625H978.344ZM994.094 172.375V152H995.531V172.375H994.094ZM1033.28 163.969V165.25H1021.56V168.562H1029.97V174.125H1013.03V177.688H1030.88V178.938H1011.59V172.906H1028.53V169.812H1011.5V168.562H1020.09V165.25H1008.38V163.969H1033.28ZM1011.72 161.094V152.938H1030V161.094H1011.72ZM1013.19 159.844H1028.53V154.188H1013.19V159.844ZM1058.44 152V172.344H1056.97V162.062H1050.09V160.75H1056.97V152H1058.44ZM1036.53 167.625C1043.17 165.359 1048.06 160.984 1048.5 155.438H1037.84V154.125H1050.12C1050.12 160.938 1044.83 166.266 1037.19 168.875L1036.53 167.625ZM1041.47 178.625V170.25H1042.97V177.344H1059.16V178.625H1041.47ZM1076.12 152.5C1082.06 152.5 1085.61 154.188 1085.62 157.281C1085.61 160.391 1082.06 162.109 1076.12 162.094C1070.17 162.109 1066.61 160.391 1066.62 157.281C1066.61 154.188 1070.17 152.5 1076.12 152.5ZM1063.69 165.594V164.312H1088.59V165.594H1063.69ZM1066.81 169.688V168.469H1085.28V174.031H1068.34V177.688H1086.19V178.938H1066.91V172.812H1083.84V169.688H1066.81ZM1068.16 157.281C1068.14 159.516 1071.25 160.891 1076.12 160.875C1080.98 160.891 1084.11 159.516 1084.12 157.281C1084.11 155.078 1080.98 153.703 1076.12 153.719C1071.25 153.703 1068.14 155.078 1068.16 157.281ZM898.156 192.344C898.141 194.172 899.906 197.031 902.781 198.5C905.609 197.094 907.344 194.328 907.344 192.344V190.281H908.781V192.344C908.797 194.719 910.875 197.5 914.188 198.594L913.375 199.781C910.75 198.797 908.891 196.828 908.078 194.719C907.266 196.828 905.438 198.984 902.75 200.031C900.031 198.922 898.203 196.641 897.422 194.547C896.578 196.578 894.734 198.672 892.125 199.781L891.312 198.594C894.547 197.344 896.672 194.328 896.688 192.344V190.281H898.156V192.344ZM890.312 203.344V202.062H915.219V203.344H890.312ZM893.438 207.375V206.156H911.906V211.969H894.969V215.688H912.812V216.938H893.531V210.75H910.469V207.375H893.438ZM943.031 212.281V213.594H917.969V212.281H929.656V204.906H921.125V192.406H939.719V204.906H931.156V212.281H943.031ZM922.531 203.688H938.281V193.656H922.531V203.688ZM954.406 208.812C954.391 211.422 956 214.219 958.812 215.641C961.625 214.062 963.297 211.016 963.312 208.812V206.969H964.75V208.812C964.719 211.641 967.141 214.578 970.594 215.812L969.781 216.969C967 215.922 964.906 213.844 964 211.453C963.203 213.719 961.453 216.031 958.875 217.188C956.172 216.109 954.406 213.953 953.641 211.562C952.672 213.828 950.609 215.906 947.938 216.969L947.156 215.812C950.516 214.516 952.969 211.438 953 208.812V206.969H954.406V208.812ZM946.406 198C946.375 194.219 949.297 191.703 953.375 191.688C957.453 191.703 960.344 194.219 960.344 198C960.344 201.734 957.453 204.219 953.375 204.219C949.297 204.219 946.375 201.734 946.406 198ZM947.844 198C947.828 200.844 950.156 202.953 953.375 202.969C956.594 202.953 958.906 200.844 958.906 198C958.906 195.156 956.594 193 953.375 193C950.156 193 947.828 195.156 947.844 198ZM966.531 205.719V190H968.031V205.719H966.531ZM995.312 198.781V200.062H976.844V190.969H978.312V198.781H995.312ZM973.25 205.594V204.312H998.281V205.594H973.25ZM976.719 216.625V208.719H978.188V215.312H995.5V216.625H976.719ZM1033.28 201.969V203.25H1021.56V206.562H1029.97V212.125H1013.03V215.688H1030.88V216.938H1011.59V210.906H1028.53V207.812H1011.5V206.562H1020.09V203.25H1008.38V201.969H1033.28ZM1011.72 199.094V190.938H1030V199.094H1011.72ZM1013.19 197.844H1028.53V192.188H1013.19V197.844ZM1058.44 190V210.344H1056.97V200.062H1050.09V198.75H1056.97V190H1058.44ZM1036.53 205.625C1043.17 203.359 1048.06 198.984 1048.5 193.438H1037.84V192.125H1050.12C1050.12 198.938 1044.83 204.266 1037.19 206.875L1036.53 205.625ZM1041.47 216.625V208.25H1042.97V215.344H1059.16V216.625H1041.47ZM1078.72 193.156V194.094C1078.69 196 1078.69 199.781 1077.88 205.219L1076.34 205.062C1077.17 200.062 1077.22 196.469 1077.22 194.469H1065V193.156H1078.72ZM1063.38 209.656C1065.33 209.656 1067.55 209.625 1069.84 209.578V200.969H1071.34V209.531C1074.58 209.422 1077.92 209.219 1080.97 208.844L1081.06 210C1075.22 210.891 1068.59 211.016 1063.62 211.031L1063.38 209.656ZM1082.97 217.344V189.969H1084.44V201.719H1089.34V203.062H1084.44V217.344H1082.97Z" fill="white"/>
<path d="M1189.28 154.375V163C1189.28 173.547 1189.28 184.891 1186.19 201.531L1175.97 200.5C1178.88 184.797 1178.88 173.266 1178.88 163V162.719H1127.59V154.375H1189.28ZM1119.81 220.375V211.844H1137.16V184.844H1147.56V211.844H1158.34V184.844H1168.56V211.844H1197.06V220.375H1119.81ZM1269.91 146.594V175H1281.34V183.625H1269.91V212.781H1259.5V146.594H1269.91ZM1202.03 195.812C1208.36 195.812 1215.72 195.766 1223.41 195.531V190.141C1213.98 188.969 1207.98 184.328 1208.03 177.531C1207.98 169.234 1216.19 164.312 1228.47 164.406C1240.8 164.312 1248.91 169.234 1248.91 177.531C1248.91 184.281 1243.09 188.875 1233.81 190.141V195.016C1241.03 194.594 1248.3 193.938 1255.09 192.906L1255.94 200.219C1237.98 203.594 1217.78 203.828 1203.16 203.969L1202.03 195.812ZM1204.19 161.594V154H1223.41V146.312H1233.81V154H1252.84V161.594H1204.19ZM1214.22 229.656V208.375H1224.62V221.219H1272.91V229.656H1214.22ZM1218.06 177.531C1217.97 181.188 1221.91 183.344 1228.47 183.344C1235.03 183.344 1238.97 181.188 1238.97 177.531C1238.97 173.547 1235.03 171.391 1228.47 171.438C1221.91 171.391 1217.97 173.547 1218.06 177.531Z" fill="white"/>
<path d="M1331.22 170.969V182.594H1336.12V183.906H1331.22V198.344H1329.75V170.969H1331.22ZM1310.16 176.875V175.562H1317.72V171.219H1319.22V175.562H1326.56V176.875H1310.16ZM1312 185.75C1311.98 182.141 1314.72 179.625 1318.53 179.594C1322.33 179.625 1325.03 182.141 1325.03 185.75C1325.03 189.391 1322.33 191.875 1318.53 191.875C1314.72 191.875 1311.98 189.391 1312 185.75ZM1313.41 185.75C1313.41 188.469 1315.58 190.547 1318.53 190.531C1321.45 190.547 1323.61 188.469 1323.62 185.75C1323.61 183.031 1321.45 180.922 1318.53 180.906C1315.58 180.922 1313.41 183.031 1313.41 185.75ZM1345.66 179.312C1345.66 183.625 1348.39 188.391 1351.94 190.406L1351 191.531C1348.25 189.891 1345.97 186.672 1345 183.109C1344.02 187 1341.64 190.406 1338.81 192.125L1337.78 191C1341.39 188.969 1344.23 184.094 1344.25 179.375V173.688H1345.66V179.312ZM1348.84 182.5V181.156H1354.19V171.656H1355.59V196.844H1354.19V182.5H1348.84ZM1359.78 198.344V170.969H1361.25V198.344H1359.78ZM1390.69 193.281V194.594H1365.62V193.281H1372.22V185.453C1369.73 184.281 1368.23 182.312 1368.25 179.812C1368.23 175.656 1372.3 172.984 1378.06 172.969C1383.84 172.984 1387.88 175.656 1387.88 179.812C1387.88 182.266 1386.44 184.219 1384.03 185.391V193.281H1390.69ZM1369.62 179.812C1369.62 183.062 1373.2 185.375 1378.06 185.375C1382.91 185.375 1386.5 183.062 1386.5 179.812C1386.5 176.516 1382.91 174.219 1378.06 174.219C1373.2 174.219 1369.62 176.516 1369.62 179.812ZM1373.66 193.281H1382.53V185.969C1381.22 186.375 1379.72 186.594 1378.06 186.594C1376.44 186.594 1374.95 186.391 1373.66 186V193.281ZM1396.72 173.375L1396.62 189.438H1395.06L1394.97 173.375H1396.72ZM1394.53 194.812C1394.52 194.094 1395.12 193.5 1395.84 193.5C1396.59 193.5 1397.19 194.094 1397.19 194.812C1397.19 195.562 1396.59 196.156 1395.84 196.156C1395.12 196.156 1394.52 195.562 1394.53 194.812Z" fill="white"/>
<path d="M533.75 174.026C530.766 174.029 527.862 172.992 525.478 171.071C523.094 169.15 521.358 166.45 520.534 163.379C519.71 160.308 519.842 157.033 520.911 154.05C521.979 151.067 523.926 148.537 526.456 146.844L563.379 107.305C565.957 104.547 569.452 102.999 573.096 103C576.739 103.001 580.233 104.553 582.809 107.313C585.385 110.073 586.831 113.815 586.83 117.717C586.828 121.619 585.38 125.361 582.802 128.119L567.404 144.593H671.113C674.756 144.593 678.25 146.143 680.826 148.901C683.402 151.66 684.849 155.401 684.849 159.302C684.849 163.203 683.402 166.945 680.826 169.703C678.25 172.462 674.756 174.011 671.113 174.011L533.75 174.026ZM726.25 202.974C729.234 202.971 732.137 204.008 734.522 205.929C736.906 207.85 738.642 210.55 739.466 213.621C740.29 216.692 740.158 219.967 739.089 222.95C738.021 225.933 736.074 228.463 733.544 230.156L696.621 269.695C695.345 271.06 693.83 272.143 692.163 272.882C690.495 273.621 688.709 274.001 686.904 274C685.1 273.999 683.314 273.618 681.647 272.878C679.98 272.138 678.466 271.054 677.191 269.687C675.916 268.321 674.904 266.698 674.214 264.913C673.524 263.128 673.17 261.215 673.17 259.283C673.171 257.351 673.527 255.438 674.218 253.653C674.909 251.868 675.922 250.247 677.198 248.881L692.596 232.407H588.887C585.244 232.407 581.75 230.857 579.174 228.099C576.598 225.34 575.151 221.599 575.151 217.698C575.151 213.797 576.598 210.055 579.174 207.297C581.75 204.538 585.244 202.989 588.887 202.989L726.25 202.974Z" fill="#F8F8F8"/>
</svg>
