<svg width="1920" height="340" viewBox="0 0 1920 340" fill="none" xmlns="http://www.w3.org/2000/svg">
<rect width="1920" height="340" fill="#238BE7"/>
<path d="M911.5 129.888V138.544H915.875V139.856H911.5V150.231H910.031V129.888H911.5ZM891.031 138.544C891.016 134.669 894 131.966 898.031 131.981C902.047 131.966 904.984 134.669 905 138.544C904.984 142.466 902.047 145.169 898.031 145.169C894 145.169 891.016 142.466 891.031 138.544ZM892.5 138.544C892.484 141.559 894.875 143.825 898.031 143.825C901.188 143.825 903.562 141.559 903.594 138.544C903.562 135.575 901.188 133.294 898.031 133.263C894.875 133.294 892.484 135.575 892.5 138.544ZM894.781 156.575V148.169H896.219V155.294H912.938V156.575H894.781ZM925.781 136.013C925.766 138.544 927.516 142.278 930.438 144.184C933.359 142.341 935.047 138.747 935.062 136.013V132.294H936.562V136.013C936.531 139.372 938.859 142.966 942.375 144.419L941.469 145.606C938.703 144.341 936.656 141.888 935.797 139.075C934.984 141.794 933.141 144.497 930.406 145.856C927.656 144.466 925.812 141.622 925 138.919C924.078 141.622 922.016 144.278 919.344 145.606L918.469 144.419C921.859 142.825 924.266 138.95 924.281 136.013V132.294H925.781V136.013ZM917.969 153.388V152.106H943V153.388H917.969ZM968.844 129.919V157.294H967.406V129.919H968.844ZM945.875 150.106C952.094 146.403 955.469 140.747 955.844 134.856H946.844V133.544H957.312C957.312 136.278 956.766 139.013 955.625 141.575H961.688V130.731H963.156V155.763H961.688V142.856H955C953.281 146.075 950.578 148.966 946.812 151.231L945.875 150.106ZM989.125 139.263V140.544H983.219V145.044C986.016 144.903 988.844 144.7 991.438 144.388L991.531 145.544C985.609 146.403 978.875 146.591 973.656 146.575L973.406 145.263C975.922 145.263 978.781 145.216 981.719 145.106V140.544H976V131.794H988.938V133.075H977.5V139.263H989.125ZM978.344 156.575V148.981H979.812V155.294H996.594V156.575H978.344ZM994.094 150.325V129.95H995.531V150.325H994.094ZM1033.28 141.919V143.2H1021.56V146.513H1029.97V152.075H1013.03V155.638H1030.88V156.888H1011.59V150.856H1028.53V147.763H1011.5V146.513H1020.09V143.2H1008.38V141.919H1033.28ZM1011.72 139.044V130.888H1030V139.044H1011.72ZM1013.19 137.794H1028.53V132.138H1013.19V137.794ZM1058.44 129.95V150.294H1056.97V140.013H1050.09V138.7H1056.97V129.95H1058.44ZM1036.53 145.575C1043.17 143.309 1048.06 138.934 1048.5 133.388H1037.84V132.075H1050.12C1050.12 138.888 1044.83 144.216 1037.19 146.825L1036.53 145.575ZM1041.47 156.575V148.2H1042.97V155.294H1059.16V156.575H1041.47ZM1076.12 130.45C1082.06 130.45 1085.61 132.138 1085.62 135.231C1085.61 138.341 1082.06 140.059 1076.12 140.044C1070.17 140.059 1066.61 138.341 1066.62 135.231C1066.61 132.138 1070.17 130.45 1076.12 130.45ZM1063.69 143.544V142.263H1088.59V143.544H1063.69ZM1066.81 147.638V146.419H1085.28V151.981H1068.34V155.638H1086.19V156.888H1066.91V150.763H1083.84V147.638H1066.81ZM1068.16 135.231C1068.14 137.466 1071.25 138.841 1076.12 138.825C1080.98 138.841 1084.11 137.466 1084.12 135.231C1084.11 133.028 1080.98 131.653 1076.12 131.669C1071.25 131.653 1068.14 133.028 1068.16 135.231ZM898.156 170.294C898.141 172.122 899.906 174.981 902.781 176.45C905.609 175.044 907.344 172.278 907.344 170.294V168.231H908.781V170.294C908.797 172.669 910.875 175.45 914.188 176.544L913.375 177.731C910.75 176.747 908.891 174.778 908.078 172.669C907.266 174.778 905.438 176.934 902.75 177.981C900.031 176.872 898.203 174.591 897.422 172.497C896.578 174.528 894.734 176.622 892.125 177.731L891.312 176.544C894.547 175.294 896.672 172.278 896.688 170.294V168.231H898.156V170.294ZM890.312 181.294V180.013H915.219V181.294H890.312ZM893.438 185.325V184.106H911.906V189.919H894.969V193.638H912.812V194.888H893.531V188.7H910.469V185.325H893.438ZM943.031 190.231V191.544H917.969V190.231H929.656V182.856H921.125V170.356H939.719V182.856H931.156V190.231H943.031ZM922.531 181.638H938.281V171.606H922.531V181.638ZM954.406 186.763C954.391 189.372 956 192.169 958.812 193.591C961.625 192.013 963.297 188.966 963.312 186.763V184.919H964.75V186.763C964.719 189.591 967.141 192.528 970.594 193.763L969.781 194.919C967 193.872 964.906 191.794 964 189.403C963.203 191.669 961.453 193.981 958.875 195.138C956.172 194.059 954.406 191.903 953.641 189.513C952.672 191.778 950.609 193.856 947.938 194.919L947.156 193.763C950.516 192.466 952.969 189.388 953 186.763V184.919H954.406V186.763ZM946.406 175.95C946.375 172.169 949.297 169.653 953.375 169.638C957.453 169.653 960.344 172.169 960.344 175.95C960.344 179.684 957.453 182.169 953.375 182.169C949.297 182.169 946.375 179.684 946.406 175.95ZM947.844 175.95C947.828 178.794 950.156 180.903 953.375 180.919C956.594 180.903 958.906 178.794 958.906 175.95C958.906 173.106 956.594 170.95 953.375 170.95C950.156 170.95 947.828 173.106 947.844 175.95ZM966.531 183.669V167.95H968.031V183.669H966.531ZM995.312 176.731V178.013H976.844V168.919H978.312V176.731H995.312ZM973.25 183.544V182.263H998.281V183.544H973.25ZM976.719 194.575V186.669H978.188V193.263H995.5V194.575H976.719ZM1033.28 179.919V181.2H1021.56V184.513H1029.97V190.075H1013.03V193.638H1030.88V194.888H1011.59V188.856H1028.53V185.763H1011.5V184.513H1020.09V181.2H1008.38V179.919H1033.28ZM1011.72 177.044V168.888H1030V177.044H1011.72ZM1013.19 175.794H1028.53V170.138H1013.19V175.794ZM1058.44 167.95V188.294H1056.97V178.013H1050.09V176.7H1056.97V167.95H1058.44ZM1036.53 183.575C1043.17 181.309 1048.06 176.934 1048.5 171.388H1037.84V170.075H1050.12C1050.12 176.888 1044.83 182.216 1037.19 184.825L1036.53 183.575ZM1041.47 194.575V186.2H1042.97V193.294H1059.16V194.575H1041.47ZM1078.72 171.106V172.044C1078.69 173.95 1078.69 177.731 1077.88 183.169L1076.34 183.013C1077.17 178.013 1077.22 174.419 1077.22 172.419H1065V171.106H1078.72ZM1063.38 187.606C1065.33 187.606 1067.55 187.575 1069.84 187.528V178.919H1071.34V187.481C1074.58 187.372 1077.92 187.169 1080.97 186.794L1081.06 187.95C1075.22 188.841 1068.59 188.966 1063.62 188.981L1063.38 187.606ZM1082.97 195.294V167.919H1084.44V179.669H1089.34V181.013H1084.44V195.294H1082.97Z" fill="white"/>
<path d="M1189.28 134.725V143.35C1189.28 153.897 1189.28 165.241 1186.19 181.881L1175.97 180.85C1178.88 165.147 1178.88 153.616 1178.88 143.35V143.069H1127.59V134.725H1189.28ZM1119.81 200.725V192.194H1137.16V165.194H1147.56V192.194H1158.34V165.194H1168.56V192.194H1197.06V200.725H1119.81ZM1269.91 126.944V155.35H1281.34V163.975H1269.91V193.131H1259.5V126.944H1269.91ZM1202.03 176.162C1208.36 176.162 1215.72 176.116 1223.41 175.881V170.491C1213.98 169.319 1207.98 164.678 1208.03 157.881C1207.98 149.584 1216.19 144.662 1228.47 144.756C1240.8 144.662 1248.91 149.584 1248.91 157.881C1248.91 164.631 1243.09 169.225 1233.81 170.491V175.366C1241.03 174.944 1248.3 174.287 1255.09 173.256L1255.94 180.569C1237.98 183.944 1217.78 184.178 1203.16 184.319L1202.03 176.162ZM1204.19 141.944V134.35H1223.41V126.662H1233.81V134.35H1252.84V141.944H1204.19ZM1214.22 210.006V188.725H1224.62V201.569H1272.91V210.006H1214.22ZM1218.06 157.881C1217.97 161.537 1221.91 163.694 1228.47 163.694C1235.03 163.694 1238.97 161.537 1238.97 157.881C1238.97 153.897 1235.03 151.741 1228.47 151.787C1221.91 151.741 1217.97 153.897 1218.06 157.881Z" fill="white"/>
<path d="M1331.22 146.069V157.694H1336.12V159.006H1331.22V173.444H1329.75V146.069H1331.22ZM1310.16 151.975V150.663H1317.72V146.319H1319.22V150.663H1326.56V151.975H1310.16ZM1312 160.85C1311.98 157.241 1314.72 154.725 1318.53 154.694C1322.33 154.725 1325.03 157.241 1325.03 160.85C1325.03 164.491 1322.33 166.975 1318.53 166.975C1314.72 166.975 1311.98 164.491 1312 160.85ZM1313.41 160.85C1313.41 163.569 1315.58 165.647 1318.53 165.631C1321.45 165.647 1323.61 163.569 1323.62 160.85C1323.61 158.131 1321.45 156.022 1318.53 156.006C1315.58 156.022 1313.41 158.131 1313.41 160.85ZM1345.66 154.413C1345.66 158.725 1348.39 163.491 1351.94 165.506L1351 166.631C1348.25 164.991 1345.97 161.772 1345 158.209C1344.02 162.1 1341.64 165.506 1338.81 167.225L1337.78 166.1C1341.39 164.069 1344.23 159.194 1344.25 154.475V148.788H1345.66V154.413ZM1348.84 157.6V156.256H1354.19V146.756H1355.59V171.944H1354.19V157.6H1348.84ZM1359.78 173.444V146.069H1361.25V173.444H1359.78ZM1390.69 168.381V169.694H1365.62V168.381H1372.22V160.553C1369.73 159.381 1368.23 157.413 1368.25 154.913C1368.23 150.756 1372.3 148.084 1378.06 148.069C1383.84 148.084 1387.88 150.756 1387.88 154.913C1387.88 157.366 1386.44 159.319 1384.03 160.491V168.381H1390.69ZM1369.62 154.913C1369.62 158.163 1373.2 160.475 1378.06 160.475C1382.91 160.475 1386.5 158.163 1386.5 154.913C1386.5 151.616 1382.91 149.319 1378.06 149.319C1373.2 149.319 1369.62 151.616 1369.62 154.913ZM1373.66 168.381H1382.53V161.069C1381.22 161.475 1379.72 161.694 1378.06 161.694C1376.44 161.694 1374.95 161.491 1373.66 161.1V168.381ZM1396.72 148.475L1396.62 164.538H1395.06L1394.97 148.475H1396.72ZM1394.53 169.913C1394.52 169.194 1395.12 168.6 1395.84 168.6C1396.59 168.6 1397.19 169.194 1397.19 169.913C1397.19 170.663 1396.59 171.256 1395.84 171.256C1395.12 171.256 1394.52 170.663 1394.53 169.913Z" fill="white"/>
<path d="M533.75 147.922C530.766 147.925 527.862 147.043 525.478 145.41C523.094 143.778 521.358 141.483 520.534 138.872C519.71 136.262 519.842 133.478 520.911 130.943C521.979 128.407 523.926 126.257 526.456 124.817L563.379 91.2096C565.957 88.8652 569.452 87.5488 573.096 87.55C576.739 87.5512 580.233 88.8698 582.809 91.2158C585.385 93.5619 586.831 96.7431 586.83 100.06C586.828 103.376 585.38 106.557 582.802 108.901L567.404 122.904H671.113C674.756 122.904 678.25 124.221 680.826 126.566C683.402 128.911 684.849 132.091 684.849 135.407C684.849 138.723 683.402 141.903 680.826 144.248C678.25 146.592 674.756 147.91 671.113 147.91L533.75 147.922ZM726.25 172.528C729.234 172.525 732.137 173.407 734.522 175.04C736.906 176.672 738.642 178.967 739.466 181.578C740.29 184.188 740.158 186.972 739.089 189.507C738.021 192.043 736.074 194.193 733.544 195.633L696.621 229.24C695.345 230.401 693.83 231.322 692.163 231.95C690.495 232.578 688.709 232.901 686.904 232.9C685.1 232.899 683.314 232.575 681.647 231.946C679.98 231.317 678.466 230.396 677.191 229.234C675.916 228.073 674.904 226.694 674.214 225.176C673.524 223.659 673.17 222.032 673.17 220.39C673.171 218.748 673.527 217.122 674.218 215.605C674.909 214.088 675.922 212.71 677.198 211.549L692.596 197.546H588.887C585.244 197.546 581.75 196.229 579.174 193.884C576.598 191.539 575.151 188.359 575.151 185.043C575.151 181.727 576.598 178.547 579.174 176.202C581.75 173.857 585.244 172.54 588.887 172.54L726.25 172.528Z" fill="#F8F8F8"/>
</svg>
