<svg width="120" height="50" viewBox="0 0 120 50" fill="none" xmlns="http://www.w3.org/2000/svg">
<rect width="120" height="50" rx="25" fill="#878893"/>
<path d="M53.4062 17.9375V19.6367H49.7539C49.793 21.1699 51.1895 22.5273 53.7969 23.0352L52.9375 24.7148C50.916 24.2949 49.4902 23.3477 48.709 22.0781C47.9375 23.4648 46.4727 24.5098 44.4023 24.9492L43.4844 23.2695C46.1309 22.7422 47.5371 21.2578 47.5664 19.6367H43.9336V17.9375H47.5859V16.1211H49.7539V17.9375H53.4062ZM42.8203 25.8672C46.1113 25.877 50.4961 25.8477 54.2656 25.3789L54.4219 26.9414C52.8984 27.2051 51.3164 27.3711 49.7734 27.4785V33.1914H47.5859V27.5957C45.9746 27.6543 44.4414 27.6641 43.0938 27.6641L42.8203 25.8672ZM55.418 33.7188V16.1016H57.5664V33.7188H55.418ZM76.2188 29.793V31.5508H60.0859V29.793H67V25.7109H69.1484V29.793H76.2188ZM60.5547 24.3438C64.2461 23.748 66.8926 21.1016 66.9023 18.4453V17.1562H69.207V18.4453C69.207 21.1113 71.873 23.748 75.5938 24.3438L74.6562 26.1406C71.6777 25.5742 69.2266 23.8652 68.0547 21.5508C66.8926 23.8555 64.4707 25.584 61.4922 26.1406L60.5547 24.3438Z" fill="white"/>
</svg>
