<svg width="45" height="16" viewBox="0 0 45 16" fill="none" xmlns="http://www.w3.org/2000/svg">
<path d="M15.5977 3.02344C17.1211 3.02344 18.1816 3.84375 18.1875 5.08594C18.1816 6.16406 17.3438 6.9375 16.0898 7.0957V8.11523C17.0625 8.0625 18.0527 7.97461 18.9609 7.83984L19.0312 8.53125C16.8223 8.92383 14.3262 8.95898 12.5273 8.95312L12.4102 8.19141C13.2188 8.19727 14.168 8.19141 15.1641 8.15625V7.10156C13.875 6.96094 13.0137 6.18164 13.0195 5.08594C13.0137 3.84375 14.0742 3.02344 15.5977 3.02344ZM13.8867 5.08594C13.875 5.87695 14.584 6.41602 15.5977 6.42188C16.6172 6.41602 17.3145 5.87695 17.3203 5.08594C17.3145 4.27734 16.6172 3.73828 15.5977 3.73828C14.584 3.73828 13.875 4.27734 13.8867 5.08594ZM13.9336 12.7148V9.82031H14.8594V11.9414H20.9297V12.7148H13.9336ZM19.6289 10.5117V2.54297H20.5547V6.07031H22.1133V6.85547H20.5547V10.5117H19.6289ZM32.332 10.8867V11.6602H22.793V10.8867H25.4766V8.90625H23.9883V5.69531H30.2227V4.06641H23.9648V3.30469H31.125V6.45703H24.9023V8.14453H31.3711V8.90625H29.7422V10.8867H32.332ZM26.3789 10.8867H28.8398V8.90625H26.3789V10.8867Z" fill="#878893"/>
<rect x="0.5" y="0.5" width="44" height="15" rx="7.5" stroke="#878893" stroke-linejoin="round"/>
</svg>
