<svg width="250" height="110" viewBox="0 0 250 110" fill="none" xmlns="http://www.w3.org/2000/svg">
<rect width="250" height="110" fill="white"/>
<path d="M126 31.6251C125.999 30.8384 126.302 30.0729 126.864 29.4443C127.426 28.8157 128.215 28.3581 129.113 28.1409C130.011 27.9236 130.969 27.9585 131.841 28.2402C132.713 28.5218 133.453 29.035 133.948 29.7021L145.509 39.4364C145.908 39.7728 146.225 40.1722 146.441 40.6117C146.657 41.0513 146.768 41.5223 146.768 41.998C146.768 42.4736 146.656 42.9446 146.44 43.384C146.223 43.8234 145.906 44.2226 145.507 44.5588C145.107 44.895 144.633 45.1617 144.111 45.3436C143.589 45.5254 143.029 45.619 142.465 45.6188C141.9 45.6186 141.34 45.5248 140.818 45.3426C140.297 45.1604 139.822 44.8935 139.423 44.557L134.606 40.4974V67.8388C134.606 68.7993 134.153 69.7204 133.346 70.3995C132.54 71.0787 131.446 71.4602 130.305 71.4602C129.164 71.4602 128.071 71.0787 127.264 70.3995C126.457 69.7204 126.004 68.7993 126.004 67.8388L126 31.6251Z" fill="#238BE7"/>
<path d="M111 23.5C111 21.567 112.191 21.0177 113.661 22.2731L136.474 41.7566C137.943 43.0119 139.135 45.5966 139.135 47.5296V47.5296C139.135 49.4626 137.943 50.0119 136.474 48.7566L128.489 41.9373V75.6054C128.489 78.0907 126.957 78.797 125.067 77.1829V77.1829C123.178 75.5689 121.646 72.2457 121.646 69.7604V36.0923L113.661 29.2731C112.191 28.0177 111 25.433 111 23.5V23.5Z" fill="black"/>
<path d="M124.768 75.8351C124.769 76.6218 124.466 77.3873 123.904 78.0159C123.342 78.6445 122.553 79.1021 121.655 79.3193C120.757 79.5366 119.799 79.5017 118.927 79.22C118.055 78.9384 117.315 78.4252 116.82 77.7581L105.259 68.0238C104.86 67.6874 104.543 67.288 104.327 66.8485C104.111 66.4089 104 65.9379 104 65.4622C104 64.9866 104.112 64.5156 104.328 64.0762C104.544 63.6368 104.861 63.2376 105.261 62.9014C105.661 62.5652 106.135 62.2985 106.657 62.1166C107.179 61.9348 107.738 61.8412 108.303 61.8414C108.868 61.8416 109.428 61.9354 109.949 62.1176C110.471 62.2998 110.945 62.5667 111.345 62.9032L116.162 66.9628V39.6214C116.162 38.6609 116.615 37.7398 117.421 37.0607C118.228 36.3815 119.322 36 120.463 36C121.603 36 122.697 36.3815 123.504 37.0607C124.31 37.7398 124.764 38.6609 124.764 39.6214L124.768 75.8351Z" fill="#238BE7"/>
</svg>
