<svg width="45" height="16" viewBox="0 0 45 16" fill="none" xmlns="http://www.w3.org/2000/svg">
<path d="M14.7891 3.58594V4.74609C14.7832 6.08203 14.7832 7.42383 14.4141 9.36328L13.5117 9.25781C13.8809 7.41797 13.8809 6.04688 13.8867 4.74609V4.34766H7.41797V3.58594H14.7891ZM6.42188 11.4727V10.7109H8.77734V7.27734H9.69141V10.7109H11.3789V7.27734H12.2812V10.7109H15.9141V11.4727H6.42188ZM24.9258 2.53125V6.1875H26.4844V6.96094H24.9258V10.6875H24V2.53125H24.9258ZM16.7461 8.73047C17.5723 8.73047 18.5508 8.71875 19.5703 8.68359V7.88672C18.3574 7.77539 17.5723 7.19531 17.5781 6.31641C17.5723 5.31445 18.5508 4.70508 20.0156 4.71094C21.4922 4.70508 22.4531 5.31445 22.4648 6.31641C22.4531 7.18945 21.6914 7.76953 20.4844 7.88672V8.64258C21.457 8.58398 22.4473 8.49609 23.3555 8.35547L23.4375 9.01172C21.2051 9.43359 18.6738 9.46289 16.8516 9.48047L16.7461 8.73047ZM17.0039 4.25391V3.5625H19.5703V2.50781H20.4844V3.5625H23.0391V4.25391H17.0039ZM18.3047 12.7266V10.1367H19.2305V11.9531H25.3008V12.7266H18.3047ZM18.457 6.31641C18.4512 6.88477 19.0547 7.25391 20.0156 7.25391C20.9766 7.25391 21.5859 6.88477 21.5859 6.31641C21.5859 5.72461 20.9766 5.36133 20.0156 5.36719C19.0547 5.36133 18.4512 5.72461 18.457 6.31641ZM36.6562 7.40625V8.16797H32.3555V9.28125C34.3184 9.36914 35.4844 10.0078 35.4961 11.1094C35.4844 12.2754 34.1426 12.9258 31.9102 12.9258C29.6484 12.9258 28.3066 12.2754 28.3125 11.1094C28.3066 10.0078 29.4668 9.36914 31.4531 9.28125V8.16797H27.1641V7.40625H36.6562ZM27.7031 6.04688C29.5078 5.85938 31.248 4.93945 31.3125 3.77344H28.0312V3.02344H35.8125V3.77344H32.5078C32.5723 4.93945 34.2949 5.85938 36.1289 6.04688L35.7891 6.77344C34.084 6.56836 32.4844 5.80078 31.9102 4.64648C31.3359 5.80078 29.748 6.56836 28.0312 6.77344L27.7031 6.04688ZM29.25 11.1094C29.2383 11.8008 30.2402 12.2168 31.9102 12.2109C33.5625 12.2168 34.5645 11.8008 34.5703 11.1094C34.5645 10.4004 33.5625 9.99609 31.9102 9.98438C30.2402 9.99609 29.2383 10.4004 29.25 11.1094Z" fill="#238BE7"/>
<rect x="0.5" y="0.5" width="44" height="15" rx="7.5" stroke="#238BE7" stroke-linejoin="round"/>
</svg>
