<svg width="45" height="16" viewBox="0 0 45 16" fill="none" xmlns="http://www.w3.org/2000/svg">
<path d="M9.97266 4.71094C9.97852 5.95898 11.0215 7.10156 12.5625 7.55859L12.1289 8.26172C10.9277 7.89844 9.99609 7.125 9.5332 6.13477C9.08203 7.22461 8.11523 8.06836 6.87891 8.47266L6.42188 7.74609C7.97461 7.27734 9.06445 6.08203 9.07031 4.71094V4.51172H6.71484V3.75H9.07031V2.48438H9.99609V3.75H12.3281V4.51172H9.97266V4.71094ZM7.47656 12.1992C9.15234 11.9297 10.6758 11.0156 10.8281 9.90234H7.88672V9.15234H14.7539V9.90234H11.8008C11.9473 10.9922 13.4824 11.9297 15.1523 12.1992L14.8125 12.9141C13.2891 12.6621 11.9062 11.9062 11.3086 10.8633C10.7168 11.9004 9.33984 12.6445 7.82812 12.9023L7.47656 12.1992ZM13.6523 8.58984V2.53125H14.5664V5.10938H16.1367V5.88281H14.5664V8.58984H13.6523ZM25.2188 5.69531V6.43359H18.082V2.91797H18.9961V5.69531H25.2188ZM16.7812 8.60156V7.85156H26.3203V8.60156H16.7812ZM18.0234 12.6914V9.66797H18.9375V11.9297H25.2773V12.6914H18.0234ZM36.6562 7.40625V8.16797H32.3555V9.28125C34.3184 9.36914 35.4844 10.0078 35.4961 11.1094C35.4844 12.2754 34.1426 12.9258 31.9102 12.9258C29.6484 12.9258 28.3066 12.2754 28.3125 11.1094C28.3066 10.0078 29.4668 9.36914 31.4531 9.28125V8.16797H27.1641V7.40625H36.6562ZM27.7031 6.04688C29.5078 5.85938 31.248 4.93945 31.3125 3.77344H28.0312V3.02344H35.8125V3.77344H32.5078C32.5723 4.93945 34.2949 5.85938 36.1289 6.04688L35.7891 6.77344C34.084 6.56836 32.4844 5.80078 31.9102 4.64648C31.3359 5.80078 29.748 6.56836 28.0312 6.77344L27.7031 6.04688ZM29.25 11.1094C29.2383 11.8008 30.2402 12.2168 31.9102 12.2109C33.5625 12.2168 34.5645 11.8008 34.5703 11.1094C34.5645 10.4004 33.5625 9.99609 31.9102 9.98438C30.2402 9.99609 29.2383 10.4004 29.25 11.1094Z" fill="#23CFE7"/>
<rect x="0.5" y="0.5" width="44" height="15" rx="7.5" stroke="#23CFE7" stroke-linejoin="round"/>
</svg>
