<svg width="120" height="50" viewBox="0 0 120 50" fill="none" xmlns="http://www.w3.org/2000/svg">
<rect width="120" height="50" rx="25" fill="#878893"/>
<path d="M28.6875 16.082V33.7578H26.5V16.082H28.6875ZM14.5664 23.6016C14.5566 19.793 16.5 17.3711 19.1758 17.3711C21.8223 17.3711 23.7754 19.793 23.7852 23.6016C23.7754 27.4395 21.8223 29.8516 19.1758 29.8516C16.5 29.8516 14.5566 27.4395 14.5664 23.6016ZM16.6562 23.6016C16.6562 26.3164 17.6816 27.8887 19.1758 27.8984C20.6602 27.8887 21.6758 26.3164 21.6758 23.6016C21.6758 20.9062 20.6602 19.3242 19.1758 19.3242C17.6816 19.3242 16.6562 20.9062 16.6562 23.6016ZM40.6211 17.7422V29.4414H32.2227V17.7422H40.6211ZM34.3711 27.7031H38.5117V19.4414H34.3711V27.7031ZM43.7852 33.7578V16.082H45.9727V33.7578H43.7852ZM55.2305 21.1016C55.2305 23.9922 56.9297 27.0391 59.7812 28.2305L58.5898 29.9492C56.5 29.041 54.9766 27.1953 54.166 24.9492C53.3555 27.3711 51.8027 29.4023 49.7422 30.3789L48.4922 28.6797C51.2754 27.3906 53.0137 24.0996 53.0234 21.1016V19.6172H49.1367V17.8203H59.0977V19.6172H55.2305V21.1016ZM61.0703 33.7383V16.082H63.2578V33.7383H61.0703ZM76.9492 19.8516C76.9395 21.8047 78.4531 23.6309 81.2266 24.3828L80.2305 26.0625C78.1699 25.5059 76.6953 24.3242 75.8848 22.8008C75.1133 24.4609 73.6387 25.7695 71.5391 26.3945L70.5039 24.6953C73.2871 23.9238 74.7812 21.9414 74.7812 19.8516V19.6758H71.0898V17.957H74.7812V16.0039H76.9688V17.957H80.6406V19.6758H76.9492V19.8516ZM73.6484 33.5234V27.2734H85.3867V33.5234H73.6484ZM75.8164 31.7656H83.2578V29.0117H75.8164V31.7656ZM80.1719 22.5859V20.8281H83.2188V16.082H85.3867V26.4727H83.2188V22.5859H80.1719ZM104 26.3555V28.0742H96.9688V33.7383H94.8203V28.0742H87.8672V26.3555H104ZM89.8203 24.5195V16.7852H91.9688V18.9531H99.8594V16.7852H102.047V24.5195H89.8203ZM91.9688 22.7617H99.8594V20.6719H91.9688V22.7617Z" fill="white"/>
</svg>
