<svg width="268" height="53" viewBox="0 0 268 53" fill="none" xmlns="http://www.w3.org/2000/svg">
<rect width="268" height="53" rx="26.5" fill="#238BE7"/>
<path d="M73.3711 18.1016V30.9922H71.2031V24.5273H68.0781V22.7695H71.2031V18.1016H73.3711ZM58.5469 27.1836C61.3594 26.2559 62.8633 23.9512 62.8633 21.5977V21.1289H59.1914V19.3711H68.7227V21.1289H65.0703V21.6172C65.0703 23.7363 66.4961 25.9336 69.2305 26.832L68.1367 28.5703C66.1641 27.8965 64.7676 26.5488 63.9961 24.8789C63.2246 26.7344 61.75 28.2188 59.6602 28.9414L58.5469 27.1836ZM61.7891 35.3867V29.8594H63.957V33.6289H73.8203V35.3867H61.7891ZM81.2617 23.4727C81.2617 26.207 82.3848 28.9609 84.8555 30.2891L83.6445 31.8906C82.0039 31.0215 80.8906 29.4688 80.2559 27.6133C79.6309 29.6152 78.5176 31.334 76.8672 32.3008L75.5977 30.6602C78.0977 29.2148 79.2012 26.2656 79.2109 23.4727V22.9258H76.2031V21.168H79.2109V18.707H81.2617V21.168H84.2109V22.9258H81.2617V23.4727ZM83.1172 26.6562V24.8594H85.4219V18.4141H87.4727V34.8789H85.4219V26.6562H83.1172ZM88.9961 35.7383V18.082H91.0664V35.7383H88.9961ZM113.137 18.082V35.7383H111.066V18.082H113.137ZM97.7656 30.4648C101.418 28.3066 103.098 25.543 103.43 21.9883H98.6641V20.2305H105.578C105.578 21.9395 105.363 23.541 104.885 25.0352H107.336V18.5117H109.387V34.8984H107.336V26.7734H104.172C103.146 28.7949 101.486 30.5625 98.9961 32.0078L97.7656 30.4648ZM121.867 22.3203C121.848 25.5625 123.557 28.8047 126.418 30.0352L125.129 31.7734C123.098 30.8359 121.613 28.9707 120.793 26.666C119.982 29.1465 118.459 31.1777 116.32 32.1836L114.992 30.3672C117.932 29.0977 119.65 25.7285 119.66 22.3203V19.5078H121.867V22.3203ZM127.688 35.7578V18.082H129.875V35.7578H127.688ZM146.633 18.8242V19.9961C146.643 21.1484 146.643 22.6133 146.271 24.4492H148.605V26.168H132.473V24.4492H144.084C144.406 22.8379 144.455 21.5879 144.465 20.543H134.465V18.8242H146.633ZM134.328 29.2734V27.5742H146.613V32.3594H136.516V33.8633H147.062V35.5625H134.348V30.6992H144.445V29.2734H134.328ZM170.637 31.832V33.6094H154.504V31.832H161.457V28.3945H156.281V19.2539H158.449V22.1445H166.633V19.2539H168.801V28.3945H163.605V31.832H170.637ZM158.449 26.6367H166.633V23.8828H158.449V26.6367ZM186.574 18.082V35.7578H184.406V26.3633H181.379V24.5859H184.406V18.082H186.574ZM172.375 21.3828V19.625H180.363V26.0898H174.582V29.8008C177.209 29.791 179.318 29.7031 181.691 29.2734L181.867 31.0508C179.24 31.5098 176.877 31.6074 173.84 31.6172H172.434V24.332H178.234V21.3828H172.375ZM202.902 18.082V24.9766H205.52V26.793H202.902V35.6992H200.734V18.082H202.902ZM188.977 30.875C193.273 28.7266 195.598 25.7383 196.027 21.7148H189.934V19.918H198.234C198.225 25.1035 196.076 29.6641 190.207 32.5547L188.977 30.875ZM221.105 18.082V35.7383H218.918V18.082H221.105ZM206.477 30.875C211.105 28.6777 213.234 25.6895 213.625 21.6758H207.375V19.957H215.832C215.832 25.2109 213.791 29.6738 207.609 32.6133L206.477 30.875Z" fill="white"/>
<path d="M25 22L35.5 32L46 22" stroke="#F8F8F8" stroke-width="3" stroke-linecap="round" stroke-linejoin="round"/>
</svg>
