<svg width="122" height="70" viewBox="0 0 122 70" fill="none" xmlns="http://www.w3.org/2000/svg">
<path d="M39.528 53V35.112H43.336L43.72 38.28H43.816C45.096 35.912 47.048 34.664 48.904 34.664C49.864 34.664 50.44 34.792 50.984 35.048L50.184 39.08C49.544 38.92 49.064 38.792 48.296 38.792C46.92 38.792 45.224 39.752 44.232 42.344V53H39.528ZM56.7245 53.448C53.5245 53.448 51.4445 51.208 51.4445 48.136C51.4445 44.328 54.5485 42.312 61.7485 41.512C61.6525 39.752 60.9165 38.44 58.7085 38.44C57.0445 38.44 55.4125 39.144 53.7805 40.136L52.0845 37C54.1965 35.72 56.7245 34.664 59.5725 34.664C64.1165 34.664 66.4525 37.352 66.4525 42.568V53H62.6125L62.2605 51.112H62.1325C60.5645 52.456 58.7725 53.448 56.7245 53.448ZM58.2605 49.768C59.6045 49.768 60.5965 49.16 61.7485 48.04V44.424C57.3645 44.968 55.9245 46.152 55.9245 47.784C55.9245 49.16 56.8845 49.768 58.2605 49.768ZM77.5508 53.448C73.0708 53.448 70.1908 49.96 70.1908 44.072C70.1908 38.216 73.8708 34.664 77.7108 34.664C79.7268 34.664 80.9748 35.4 82.2868 36.584L82.0948 33.768V27.496H86.7987V53H82.9588L82.6068 51.144H82.5108C81.1988 52.456 79.4068 53.448 77.5508 53.448ZM78.7348 49.576C80.0148 49.576 81.0708 49.064 82.0948 47.752V39.88C81.0388 38.888 79.8868 38.504 78.7668 38.504C76.7508 38.504 75.0228 40.424 75.0228 44.008C75.0228 47.752 76.3988 49.576 78.7348 49.576ZM99.6485 53.448C94.6245 53.448 90.7205 49.992 90.7205 44.072C90.7205 38.248 94.8165 34.664 99.0405 34.664C104.001 34.664 106.529 38.248 106.529 43.208C106.529 44.104 106.433 44.936 106.337 45.384H95.2645C95.6805 48.328 97.6005 49.832 100.257 49.832C101.697 49.832 102.977 49.384 104.289 48.584L105.857 51.496C104.097 52.712 101.857 53.448 99.6485 53.448ZM95.2005 42.248H102.529C102.529 39.816 101.441 38.28 99.1365 38.28C97.2485 38.28 95.5845 39.624 95.2005 42.248ZM110.434 53V35.112H114.242L114.626 38.28H114.722C116.002 35.912 117.954 34.664 119.81 34.664C120.77 34.664 121.346 34.792 121.89 35.048L121.09 39.08C120.45 38.92 119.97 38.792 119.202 38.792C117.826 38.792 116.13 39.752 115.138 42.344V53H110.434Z" fill="black"/>
<path d="M21.9999 11.625C21.999 10.8383 22.3023 10.0728 22.864 9.44421C23.4257 8.8156 24.2152 8.35807 25.1131 8.14082C26.0111 7.92357 26.9686 7.95843 27.8409 8.2401C28.7132 8.52178 29.4529 9.03497 29.9481 9.70205L41.5089 19.4363C41.9083 19.7728 42.225 20.1722 42.441 20.6117C42.657 21.0512 42.768 21.5222 42.7678 21.9979C42.7676 22.4736 42.6562 22.9445 42.4398 23.3839C42.2234 23.8233 41.9064 24.2225 41.5068 24.5588C41.1072 24.895 40.6329 25.1616 40.1109 25.3435C39.5889 25.5254 39.0294 25.6189 38.4645 25.6187C37.8996 25.6186 37.3403 25.5247 36.8184 25.3425C36.2966 25.1603 35.8225 24.8934 35.4231 24.5569L30.6061 20.4974V47.8388C30.6061 48.7992 30.153 49.7203 29.3464 50.3995C28.5398 51.0786 27.4458 51.4601 26.3052 51.4601C25.1645 51.4601 24.0705 51.0786 23.264 50.3995C22.4574 49.7203 22.0042 48.7992 22.0042 47.8388L21.9999 11.625Z" fill="#238BE7"/>
<path d="M6.99995 3.5C6.99995 1.567 8.19151 1.01769 9.66137 2.27307L32.4736 21.7566C33.9435 23.0119 35.135 25.5966 35.135 27.5296C35.135 29.4626 33.9435 30.0119 32.4736 28.7566L24.4893 21.9373V55.6054C24.4893 58.0907 22.9573 58.797 21.0675 57.1829C19.1777 55.5689 17.6457 52.2457 17.6457 49.7604V16.0923L9.66137 9.27307C8.19151 8.01769 6.99995 5.433 6.99995 3.5Z" fill="black"/>
<path d="M20.7679 55.8351C20.7688 56.6218 20.4655 57.3873 19.9038 58.0159C19.3422 58.6445 18.5527 59.1021 17.6547 59.3193C16.7568 59.5366 15.7993 59.5017 14.9269 59.22C14.0546 58.9384 13.3149 58.4252 12.8198 57.7581L1.25889 48.0238C0.859571 47.6874 0.542875 47.288 0.326874 46.8485C0.110872 46.4089 -0.000200272 45.9379 0 45.4622C0.000200272 44.9866 0.111668 44.5156 0.328037 44.0762C0.544407 43.6368 0.861441 43.2376 1.26104 42.9014C1.66064 42.5652 2.13498 42.2985 2.65697 42.1166C3.17896 41.9348 3.73839 41.8412 4.30331 41.8414C4.86823 41.8416 5.42758 41.9354 5.94942 42.1176C6.47127 42.2998 6.94539 42.5667 7.3447 42.9032L12.1617 46.9628L12.1617 19.6214C12.1617 18.6609 12.6149 17.7398 13.4214 17.0607C14.228 16.3815 15.322 16 16.4627 16C17.6033 16 18.6973 16.3815 19.5039 17.0607C20.3105 17.7398 20.7636 18.6609 20.7636 19.6214L20.7679 55.8351Z" fill="#238BE7"/>
</svg>
