<svg width="120" height="50" viewBox="0 0 120 50" fill="none" xmlns="http://www.w3.org/2000/svg">
<rect width="120" height="50" rx="25" fill="#238BE7"/>
<path d="M58.9141 24.2656V26.043H42.8008V24.2656H58.9141ZM44.6758 30.4766C44.6758 28.4258 46.9902 27.2637 50.8281 27.2734C54.6367 27.2637 56.9316 28.4258 56.9414 30.4766C56.9316 32.5566 54.6367 33.7188 50.8281 33.7188C46.9902 33.7188 44.6758 32.5566 44.6758 30.4766ZM44.7734 22.8789V16.6484H56.9609V18.4062H46.9414V21.1406H57.0586V22.8789H44.7734ZM46.8828 30.4766C46.873 31.5215 48.2598 32.0391 50.8281 32.0391C53.3574 32.0391 54.7539 31.5215 54.7734 30.4766C54.7539 29.4805 53.3574 28.9336 50.8281 28.9336C48.2598 28.9336 46.873 29.4805 46.8828 30.4766ZM76.1992 25.6328V27.3906H60.0664V25.6328H67.0586V24.168H62.1172V19.4805H72.0391V18.1719H62.0586V16.4727H74.207V21.0625H64.2656V22.4688H74.5586V24.168H69.207V25.6328H76.1992ZM61.8633 30.2227V28.5039H74.3047V33.6211H72.1172V30.2227H61.8633Z" fill="white"/>
</svg>
